<svg width="526" height="637" viewBox="0 0 526 637" fill="none" xmlns="http://www.w3.org/2000/svg">
<rect y="236" width="526" height="387" fill="white"/>
<path d="M108.232 550.536H101.917L82.632 497.288L77.6827 496.605V492.851H97.8213V496.605L92.872 497.117C92.4169 497.117 92.1893 497.345 92.1893 497.8C91.9618 497.8 91.848 498.028 91.848 498.483L106.696 539.784L120.861 498.483C120.975 498.369 121.032 498.255 121.032 498.141C121.032 497.914 120.861 497.686 120.52 497.459C120.292 497.231 120.065 497.117 119.837 497.117L115.229 496.605V492.851H131.955V496.605L126.664 497.288L108.232 550.536ZM164.327 497.8C163.986 497.8 163.815 498.141 163.815 498.824V543.368C163.815 543.709 163.986 544.108 164.327 544.563C164.327 544.79 164.725 544.904 165.522 544.904L170.812 545.416V549H148.455V545.416L153.575 544.904H154.428C154.656 544.904 154.77 544.79 154.77 544.563C154.997 544.335 155.111 543.937 155.111 543.368V497.8C154.656 497.345 154.144 497.117 153.575 497.117L148.455 496.605V492.851H170.812V496.605L165.522 497.117C164.725 497.117 164.327 497.345 164.327 497.8ZM215.397 550.536H209.082L189.797 497.288L184.848 496.605V492.851H204.986V496.605L200.037 497.117C199.582 497.117 199.354 497.345 199.354 497.8C199.127 497.8 199.013 498.028 199.013 498.483L213.861 539.784L228.026 498.483C228.14 498.369 228.197 498.255 228.197 498.141C228.197 497.914 228.026 497.686 227.685 497.459C227.457 497.231 227.23 497.117 227.002 497.117L222.394 496.605V492.851H239.12V496.605L233.829 497.288L215.397 550.536ZM271.151 524.595H287.535L279.513 502.237L271.151 524.595ZM289.071 545.416L293.849 544.904C294.077 544.904 294.361 544.79 294.703 544.563V543.368L289.071 528.179H269.785L264.153 543.368V543.88C264.153 544.108 264.324 544.335 264.665 544.563V544.733C264.665 544.847 264.779 544.904 265.007 544.904H265.177L269.956 545.416V549H253.401V545.416L258.18 544.563L277.465 491.485H283.951L303.577 543.027C303.577 543.368 303.577 543.652 303.577 543.88C303.691 543.994 303.748 544.108 303.748 544.221C304.089 544.449 304.317 544.563 304.431 544.563C304.658 544.563 304.829 544.676 304.943 544.904L308.697 545.416V549H289.071V545.416ZM361.72 539.443C363.768 537.167 365.191 534.607 365.987 531.763C366.783 528.804 367.182 525.732 367.182 522.547C367.182 517.313 366.727 513.103 365.816 509.917C365.134 506.732 363.598 504.285 361.208 502.579C360.184 500.872 358.193 499.564 355.235 498.653C352.391 497.629 349.205 497.117 345.678 497.117H339.534V544.904H346.019C349.546 544.904 352.561 544.392 355.064 543.368C357.226 542.799 359.445 541.491 361.72 539.443ZM367.864 499.677C370.823 501.839 373.041 504.74 374.52 508.381C376.113 511.908 376.91 515.492 376.91 519.133C376.91 527.098 375.374 533.299 372.302 537.736C368.319 543.311 363.313 546.668 357.283 547.805C354.552 548.602 351.31 549 347.555 549H324.515V545.416L329.123 544.904C329.806 544.904 330.261 544.79 330.488 544.563C330.716 544.335 330.83 543.937 330.83 543.368V498.141C330.83 497.914 330.716 497.8 330.488 497.8C329.919 497.345 329.464 497.117 329.123 497.117L324.515 496.605V492.851H346.019C349.774 492.851 353.813 493.533 358.136 494.899C362.46 495.923 365.703 497.516 367.864 499.677ZM410.066 524.595H426.45L418.428 502.237L410.066 524.595ZM427.986 545.416L432.764 544.904C432.992 544.904 433.276 544.79 433.618 544.563V543.368L427.986 528.179H408.7L403.068 543.368V543.88C403.068 544.108 403.239 544.335 403.58 544.563V544.733C403.58 544.847 403.694 544.904 403.922 544.904H404.092L408.871 545.416V549H392.316V545.416L397.095 544.563L416.38 491.485H422.866L442.492 543.027C442.492 543.368 442.492 543.652 442.492 543.88C442.606 543.994 442.663 544.108 442.663 544.221C443.004 544.449 443.232 544.563 443.346 544.563C443.573 544.563 443.744 544.676 443.858 544.904L447.612 545.416V549H427.986V545.416Z" fill="black"/>
<g clip-path="url(#clip0_658_91)">
<mask id="mask0_658_91" style="mask-type:luminance" maskUnits="userSpaceOnUse" x="20" y="240" width="275" height="275">
<path d="M157.379 514.286C233.121 514.286 294.522 452.885 294.522 377.143C294.522 301.401 233.121 240 157.379 240C81.637 240 20.2361 301.401 20.2361 377.143C20.2361 452.885 81.637 514.286 157.379 514.286Z" fill="white"/>
</mask>
<g mask="url(#mask0_658_91)">
<path d="M369.522 514.286C445.264 514.286 506.665 452.885 506.665 377.143C506.665 301.401 445.264 240 369.522 240C293.78 240 232.379 301.401 232.379 377.143C232.379 452.885 293.78 514.286 369.522 514.286Z" fill="#FF9933" fill-opacity="0.392157"/>
</g>
<mask id="mask1_658_91" style="mask-type:luminance" maskUnits="userSpaceOnUse" x="-11" y="340" width="276" height="275">
<path d="M223.712 574.497C277.386 521.056 277.575 434.222 224.135 380.548C170.694 326.874 83.8599 326.684 30.1857 380.125C-23.4885 433.566 -23.6777 520.4 29.7631 574.074C83.2039 627.748 170.038 627.937 223.712 574.497Z" fill="white"/>
</mask>
<g mask="url(#mask1_658_91)">
<path d="M374.046 424.816C427.72 371.375 427.909 284.542 374.469 230.867C321.028 177.193 234.194 177.004 180.52 230.445C126.846 283.886 126.656 370.719 180.097 424.394C233.538 478.068 320.372 478.257 374.046 424.816Z" fill="#FF9933" fill-opacity="0.392157"/>
</g>
<mask id="mask2_658_91" style="mask-type:luminance" maskUnits="userSpaceOnUse" x="262" y="340" width="276" height="275">
<path d="M303.188 574.493C249.514 521.052 249.325 434.218 302.765 380.544C356.206 326.87 443.04 326.681 496.714 380.122C550.388 433.562 550.578 520.396 497.137 574.07C443.696 627.745 356.862 627.934 303.188 574.493Z" fill="white"/>
</mask>
<g mask="url(#mask2_658_91)">
<path d="M152.854 424.813C99.1798 371.372 98.9906 284.538 152.431 230.864C205.872 177.19 292.706 177.001 346.38 230.441C400.054 283.882 400.244 370.716 346.803 424.39C293.362 478.064 206.528 478.254 152.854 424.813Z" fill="#FF9933" fill-opacity="0.392157"/>
</g>
</g>
<defs>
<clipPath id="clip0_658_91">
<rect width="500" height="500" fill="white" transform="translate(13)"/>
</clipPath>
</defs>
</svg>
